<svg width="20" height="22" viewBox="0 0 20 22" fill="none" xmlns="http://www.w3.org/2000/svg">
<path d="M19.8963 7.82326C19.8963 9.25329 19.9795 10.6893 19.8773 12.1125C19.7136 14.3834 18.6685 16.2952 17.1047 17.9245C15.2006 19.9094 12.8593 21.1814 10.2287 21.9569C10.0971 21.9956 9.93519 22.0188 9.80877 21.9801C6.58421 21.0062 3.7874 19.3889 1.7898 16.6173C0.57236 14.927 -0.0025889 13.022 8.76198e-06 10.9444C0.00260642 8.6684 -0.000857124 6.39151 0.000874648 4.11549C0.000874648 3.45244 0.164527 3.30213 0.85637 3.28753C3.14318 3.23772 5.34512 2.80828 7.42065 1.82744C8.20861 1.45469 8.91257 0.965986 9.48666 0.301215C9.79751 -0.0595131 10.1378 -0.105893 10.4071 0.214469C11.5258 1.54229 13.0515 2.15038 14.6551 2.61933C16.1124 3.04619 17.6026 3.27551 19.1248 3.29011C19.8002 3.29612 19.963 3.4636 19.963 4.13095C19.963 5.36258 19.963 6.59335 19.963 7.82498C19.9405 7.82498 19.918 7.82498 19.8955 7.82498L19.8963 7.82326ZM1.1222 4.42554C1.1144 4.52432 1.10142 4.60763 1.10142 4.69008C1.10142 6.85187 1.0789 9.01453 1.11007 11.1763C1.13605 12.9516 1.67983 14.5818 2.73015 16.0238C4.50781 18.4639 6.97039 19.9257 9.81396 20.8207C9.96116 20.867 10.1534 20.8361 10.3067 20.7872C12.0185 20.2323 13.6126 19.4464 15.0214 18.3248C17.4563 16.3863 18.8988 13.9522 18.8521 10.7632C18.8235 8.80152 18.8469 6.83985 18.8469 4.87817C18.8469 4.72615 18.8469 4.57327 18.8469 4.42297C15.5972 4.14984 12.5086 3.57268 9.98368 1.43665C7.42325 3.589 4.33204 4.15414 1.1222 4.42469V4.42554Z" fill="#585858"/>
<path d="M7.75749 9.88022C7.75749 9.52464 7.75229 9.18539 7.75835 8.84527C7.78087 7.581 8.72815 6.62507 9.96117 6.6182C11.221 6.61133 12.151 7.51916 12.1891 8.80233C12.1995 9.15618 12.1908 9.51004 12.1908 9.85617C12.932 9.9558 13.3026 10.3704 13.3026 11.0998C13.3026 12.3014 13.3052 13.5038 13.3018 14.7054C13.3 15.2345 13.1364 15.3985 12.6056 15.3994C10.8608 15.4028 9.1152 15.4019 7.37044 15.3994C6.84052 15.3985 6.64915 15.2087 6.64742 14.6693C6.64136 13.3673 6.64482 12.0652 6.64569 10.7631C6.64569 10.07 6.79895 9.91887 7.50725 9.89826C7.57652 9.89654 7.64492 9.88795 7.75835 9.87936L7.75749 9.88022ZM7.77827 14.2717H12.1657V11.0363H7.77827V14.2717ZM11.0591 9.88022C11.0591 9.43704 11.1007 9.00846 11.0487 8.5919C10.982 8.06026 10.5275 7.71928 9.98888 7.71671C9.46675 7.71413 8.97233 8.06885 8.90739 8.57902C8.85197 9.0076 8.89613 9.4482 8.89613 9.88108H11.06L11.0591 9.88022Z" fill="#585858"/>
</svg>
